# xmcd
#
# Track frame offsets: 
#        150
#        15447
#        28470
#        44910
#        55733
#        71176
#        87396
#        100119
#        120108
#        145370
#        167024
#
# Disc length: 2276 seconds
#
# Revision: 0
# Processed by: cddbd v1.5.2PL0 Copyright (c) Steve Scherf et al.
# Submitted via: ExactAudioCopy v0.95b4
#
DISCID=9708e20b
DTITLE=안산동상고등학교 선교중창반 - Vol.10 Perpetual Love
DYEAR=2006
DGENRE=Gospel
TTITLE0=주만 의지해요 (10,11기)
TTITLE1=주 인하여 (여성)
TTITLE2=네 마음에 소망 필요해 (10기)
TTITLE3=내 영혼에 햇빛비치니 (10,11기)
TTITLE4=Oh Holy Night (남성)
TTITLE5=Canticle Of Joy (10,11기)
TTITLE6=다 찬양하여라 (10기)
TTITLE7=본향을 향하네 (10,11기)
TTITLE8=훈계로 다스려 주소서 (10기)
TTITLE9=Finale (다같이- 선배와 함께)
TTITLE10=Hidden Track
EXTD=
EXTT0=
EXTT1=
EXTT2=
EXTT3=
EXTT4=
EXTT5=
EXTT6=
EXTT7=
EXTT8=
EXTT9=
EXTT10=
PLAYORDER=
